<?xml version="1.0" encoding="utf-8"?>
<!-- Generator: Adobe Illustrator 19.0.0, SVG Export Plug-In . SVG Version: 6.00 Build 0)  -->
<svg version="1.1" id="Layer_1" xmlns="http://www.w3.org/2000/svg" xmlns:xlink="http://www.w3.org/1999/xlink" x="0px" y="0px"
	 viewBox="-504 297 798 200" style="enable-background:new -504 297 798 200;" xml:space="preserve">
<style type="text/css">
	.st0{display:none;}
	.st1{fill:#252A31;}
	.st2{fill:none;stroke:#252A31;stroke-width:3;stroke-miterlimit:10;}
	.st3{display:inline;}
	.st4{font-family:'Poppins-Regular';}
	.st5{font-size:22px;}
	.st6{font-size:19px;}
	.st7{font-size:20px;}
	.st8{font-size:24px;}
	.st9{fill:none;stroke:#252A31;stroke-width:1.902;stroke-miterlimit:10;}
</style>
<g id="Guides" class="st0">
</g>
<g id="_x33_">
	<g>
		<g>
			<path class="st1" d="M230.8,348.5H117c-7.3,0-13.2,5.9-13.2,13.2v66.5c0,7.3,5.9,13.2,13.2,13.2h113.8c7.3,0,13.2-5.9,13.2-13.2
				v-66.5C244,354.4,238.1,348.5,230.8,348.5z M236,428.1c0,3-2.3,5.2-5.2,5.2H117c-3,0-5.2-2.3-5.2-5.2v-66.5c0-3,2.3-5.2,5.2-5.2
				h113.8c3,0,5.2,2.3,5.2,5.2L236,428.1L236,428.1z"/>
		</g>
		<line class="st2" x1="107.6" y1="369" x2="240" y2="369"/>
		<line class="st2" x1="152.3" y1="369" x2="152.3" y2="435.9"/>
		<line class="st2" x1="167.7" y1="383.5" x2="209.5" y2="383.5"/>
		<line class="st2" x1="167.7" y1="399" x2="227.5" y2="399"/>
		<line class="st2" x1="167.7" y1="409" x2="227.5" y2="409"/>
		<line class="st2" x1="167.7" y1="419" x2="227.5" y2="419"/>
	</g>
	<g class="st0">
		<text transform="matrix(0.85 0 0 1 152.3663 460.1623)" class="st3 st4 st5">.</text>
		<text transform="matrix(0.75 0 0 1 155.5634 460.1623)" class="st3 st4 st6">html</text>
		<g class="st3">
			<path d="M192.2,441.3v20.5h-0.1c0,1.1-0.9,2-2,2h-39.7v-8.7c0-2-1.6-3.7-3.7-3.7H138v-10.1h-2.8v10.6c0,1,0.4,1.9,1.1,2.6l11,11
				c0.7,0.7,1.6,1.1,2.6,1.1h40.3c2.6,0,4.8-2.1,4.8-4.8v-20.5H192.2z M147.5,461.7l-7.5-7.5h6.7c0.5,0,0.8,0.4,0.8,0.8V461.7z"/>
		</g>
	</g>
	<g>
		<g>
			<path class="st1" d="M256.7,429h-12.8c-0.1,1-0.2,1.9-0.5,2.8h12.9c0.5,0,0.8,0.4,0.8,0.8v29.3H257c0,1.1-0.9,2-2,2h-39.7v-8.7
				c0-2-1.6-3.7-3.7-3.7h-8.7v-10.2h-2.8v10.6c0,1,0.4,1.9,1.1,2.6l11,11c0.7,0.7,1.6,1.1,2.6,1.1h40.3c2.6,0,4.8-2.1,4.8-4.8v-29.2
				C260,430.7,258.6,429.1,256.7,429z M212.5,461.7l-7.5-7.5h6.7c0.5,0,0.8,0.4,0.8,0.8V461.7z"/>
		</g>
		<text transform="matrix(0.85 0 0 1 220.4444 458.1623)" class="st1 st4 st7">.pdf</text>
	</g>
	<text transform="matrix(0.85 0 0 1 118.335 341.0954)" class="st1 st4 st5">html</text>
</g>
<g id="_x32_">
	<g>
		<g>
			<path class="st1" d="M-143.5,457.4h-9.8c-0.3,0-0.5-0.1-0.7-0.3c-0.2-0.2-0.2-0.5-0.1-0.7l4.2-12.7c0.2-0.6,0.8-1,1.5-1l0,0
				c0.7,0,1.2,0.4,1.5,1l0,0l4.2,12.6c0.1,0.3,0,0.5-0.1,0.7C-142.9,457.2-143.3,457.4-143.5,457.4z M-152.2,455.7h7.5l-3.7-11.4
				L-152.2,455.7z M-160.3,478.8c-0.2,0-0.3-0.1-0.5-0.2l-18.3-13.4c-0.8-0.6-1.1-1.6-0.8-2.5l2.1-6.4c0.1-0.3,0.3-0.5,0.6-0.6
				s0.6,0.1,0.8,0.3l16.7,21.4c0.3,0.3,0.2,0.8-0.1,1.1C-159.8,478.7-160,478.8-160.3,478.8z M-176.7,458.3l-1.6,4.9
				c-0.1,0.2,0,0.5,0.2,0.7l13.6,9.9L-176.7,458.3z"/>
			<path class="st1" d="M-167.2,457.4h-9.8c-0.3,0-0.5-0.1-0.7-0.3c-0.2-0.2-0.2-0.5-0.1-0.7l4.2-12.7c0.2-0.6,0.8-1.1,1.5-1.1l0,0
				c0.7,0,1.2,0.4,1.5,1l4.2,12.7c0.1,0.3,0,0.5-0.1,0.7C-166.7,457.3-167,457.4-167.2,457.4z M-175.9,455.7h7.5l-3.7-11.4
				L-175.9,455.7z"/>
			<path class="st1" d="M-160.3,478.8c-0.4,0-0.7-0.2-0.8-0.6l-7-21.4c-0.1-0.3,0-0.5,0.1-0.7c0.2-0.2,0.4-0.3,0.7-0.3h14
				c0.3,0,0.5,0.1,0.7,0.3c0.2,0.2,0.2,0.5,0.1,0.7l-7,21.4C-159.6,478.5-159.9,478.8-160.3,478.8z M-166.1,457.4l5.8,17.9l5.8-17.9
				H-166.1z"/>
			<path class="st1" d="M-160.3,478.8c-0.2,0-0.4-0.1-0.6-0.3c-0.3-0.3-0.3-0.8-0.1-1.1l16.7-21.4c0.2-0.2,0.5-0.4,0.8-0.3
				c0.3,0.1,0.5,0.3,0.6,0.6l2.1,6.4l0,0c0.3,0.9,0,1.9-0.8,2.5l-18.4,13.4C-159.9,478.7-160.1,478.8-160.3,478.8z M-143.8,458.3
				l-12.1,15.5l13.6-9.9c0.2-0.2,0.3-0.4,0.2-0.7L-143.8,458.3z"/>
		</g>
		<g id="bitbucket">
			<g>
				<path class="st1" d="M-54.5,448.1c2.1,0,3.6,0.4,4.2,0.8c-0.6,0.4-2.1,0.8-4.2,0.8s-3.6-0.4-4.2-0.8
					C-58.1,448.5-56.7,448.1-54.5,448.1 M-54.5,446.4c-2.2,0-4,0.4-5.1,1c-0.5,0.3-0.8,0.9-0.8,1.5s0.3,1.2,0.8,1.5
					c1.1,0.6,3,1,5.1,1s4-0.4,5.1-1c0.5-0.3,0.8-0.9,0.8-1.5s-0.3-1.2-0.8-1.5C-50.5,446.7-52.4,446.4-54.5,446.4L-54.5,446.4z"/>
			</g>
			<g>
				<path class="st1" d="M-54.5,457c0.9,0,1.6,0.7,1.6,1.6s-0.7,1.6-1.6,1.6s-1.6-0.7-1.6-1.6C-56.1,457.7-55.4,457-54.5,457
					 M-54.5,455.3c-1.8,0-3.3,1.5-3.3,3.3s1.5,3.3,3.3,3.3s3.3-1.5,3.3-3.3S-52.7,455.3-54.5,455.3L-54.5,455.3z"/>
			</g>
			<g>
				<path class="st1" d="M-54.5,443.9c3.7,0,8.2,0.7,10.7,1.7l-1.5,15.7c-2,1.6-5.5,2.5-9.2,2.5c-3.3,0-7.9-2-9.2-2.7l-1.5-15.5
					C-62.7,444.7-58.2,443.9-54.5,443.9 M-54.5,442.2c-3.8,0-8.6,0.7-11.3,1.8l-1.2,0.5l0.1,1.3l1.5,15.5l0.1,0.9l0.8,0.4
					c0.1,0,5.6,2.9,10,2.9c4.1,0,8-1.1,10.3-2.9l0.6-0.5l0.1-0.7l1.5-15.7l0.1-1.3l-1.2-0.5C-45.9,443-50.6,442.2-54.5,442.2
					L-54.5,442.2z"/>
			</g>
			<g>
				<path class="st1" d="M-46.2,468.4l-0.8,7.4c-2.1,1-4.7,1.5-7.5,1.5s-5.4-0.5-7.5-1.5l-0.9-7.4c1.9,0.8,5,1.9,8.3,2
					c0.1,0,0.2,0,0.2,0C-51.2,470.3-48.1,469.2-46.2,468.4 M-44.1,465.6l-2.7,1.2c-2.7,1.2-5.2,1.8-7.5,1.8h-0.2
					c-3-0.1-5.9-1.1-7.7-1.8l-2.7-1.1l0.3,2.9l0.9,7.4l0.1,0.9l0.8,0.4c2.3,1.1,5.2,1.7,8.3,1.7c3.1,0,6-0.6,8.3-1.7l0.9-0.4
					l0.1-0.9l0.8-7.4L-44.1,465.6L-44.1,465.6z"/>
			</g>
		</g>
		<g>
			<path class="st1" d="M-103.3,441.8c0.3,0,0.5,0,0.8,0c9.9,0.4,17.9,8.4,18.3,18.2c0.4,8.8-5.2,16.8-13.5,19.3c-0.1,0-0.1,0-0.1,0
				l-0.1-0.1v-5.4c0-0.7-0.1-1.4-0.3-2.1c0.2-0.1,0.3-0.1,0.5-0.1c0.7-0.2,1.4-0.5,2.3-0.9c0.9-0.5,1.5-1.1,2-1.6
				c0.7-0.7,1-1.7,1.4-2.6c0.3-1,0.5-2.2,0.5-3.5c0-1.8-0.5-3.3-1.5-4.5c0.3-1.4,0.2-2.8-0.4-4.4l-0.2-0.5l-0.5-0.2
				c-0.2-0.1-0.5-0.1-0.8-0.1c-0.5,0-1.1,0.1-1.7,0.4c-0.7,0.3-1.4,0.6-2.1,1l-0.4,0.2c-1.3-0.3-2.5-0.5-3.9-0.5
				c-1.3,0-2.6,0.1-3.9,0.5c-0.1-0.1-0.3-0.1-0.4-0.3c-0.4-0.3-1-0.5-1.9-0.9c-0.7-0.3-1.3-0.5-1.9-0.5c-0.3,0-0.5,0-0.8,0.1
				l-0.5,0.2l-0.2,0.5c-0.6,1.6-0.7,3.1-0.3,4.4c-0.9,1.3-1.5,2.8-1.5,4.5c0,1.2,0.1,2.4,0.5,3.5c0.3,1.1,0.7,2,1.3,2.6
				c0.6,0.7,1.3,1.3,2,1.7c0.7,0.4,1.5,0.7,2.2,0.9c0.2,0.1,0.3,0.1,0.5,0.1c-0.1,0.3-0.2,0.7-0.3,1.1v0.1c0,0,0,1.1,0,2.1
				c-1.8-0.6-3.3-1.4-4.5-2.7c-0.9-1-1.9-2-2.4-2.2c-0.2-0.1-0.4-0.1-0.5-0.1c-0.7,0-1.1,0.8-1,1.2c0.2,0.7,1.3,1.2,1.8,1.7
				c0.6,0.7,0.7,1.6,1.3,2.2c0.7,1,3,2.2,4.8,2.2c0.1,0,0.3,0,0.4,0v2c0,0,0,0.1-0.1,0.1c0,0,0,0-0.1,0c0,0,0,0-0.1,0
				c-8.4-2.2-14.2-9.8-14.2-18.5c0-5.3,2.1-10.2,5.9-13.8C-113,443.7-108.3,441.8-103.3,441.8 M-103.3,440.1L-103.3,440.1
				c-5.5,0-10.6,2.1-14.5,5.9c-4.1,4-6.4,9.3-6.4,15.1c0,9.4,6.3,17.6,15.3,20.1c0.2,0.1,0.5,0.1,0.7,0.1c0.5,0,0.9-0.2,1.3-0.5
				c0.4-0.4,0.6-0.9,0.6-1.4v-1.9v-2.4V473c0-0.2,0.1-0.5,0.1-0.6l0.7-1.7l-1.7-0.6c-0.2-0.1-0.3-0.1-0.5-0.1h-0.1l0,0l0,0
				c-0.7-0.2-1.3-0.4-1.9-0.7c-0.6-0.3-1.1-0.7-1.5-1.3c-0.4-0.5-0.7-1.1-1-2.1c-0.3-0.9-0.4-1.9-0.4-3c0-1.3,0.4-2.5,1.2-3.5
				l0.5-0.7l-0.3-0.8c-0.3-0.8-0.2-1.9,0.2-3.1c0.2,0,0.5,0.1,1.2,0.3l0,0l0,0c0.5,0.2,1.1,0.4,1.5,0.7c0.3,0.2,0.5,0.4,0.7,0.4
				l0.6,0.3l0.6-0.2c1.1-0.3,2.2-0.4,3.4-0.4c1.3,0,2.3,0.1,3.4,0.4l0.6,0.2l0.6-0.3l0.4-0.2h0.1h0.1c0.5-0.3,1.1-0.6,1.9-0.9
				c0.4-0.2,0.8-0.3,1.1-0.3l0,0c0.4,1.1,0.5,2.2,0.3,3.1l-0.2,0.8l0.5,0.7c0.8,1,1.1,2.1,1.1,3.5c0,1.1-0.1,2-0.4,2.9v0.1
				c-0.3,0.7-0.5,1.4-0.9,1.9c-0.4,0.4-0.9,0.9-1.6,1.3c-0.7,0.4-1.3,0.6-1.9,0.8l0,0l0,0H-98c-0.1,0-0.3,0.1-0.5,0.1l-1.6,0.5
				l0.5,1.6c0.2,0.6,0.3,1.1,0.3,1.6v5.4c0,0.5,0.2,1,0.6,1.4l0.5,0.5h0.7h0.1h0.3l0.2-0.1c9.1-2.8,15.1-11.5,14.7-21.1
				c-0.4-10.7-9.2-19.4-20-19.9C-102.8,440.1-103,440.1-103.3,440.1L-103.3,440.1z"/>
		</g>
	</g>
	<path class="st1" d="M-61.9,371.9l-46.8-46.9c-0.6-0.6-2.2-0.6-3.2,0l-13,13l12,12c0.9-0.5,2.1-0.6,3.2-0.6c4.4,0,7.7,3.6,7.7,7.7
		c0,1.1-0.2,2.2-0.6,3.2l9.6,9.6c0.9-0.5,2.1-0.6,3.2-0.6c4.4,0,7.7,3.6,7.7,7.7c0,4.4-3.6,7.7-7.7,7.7c-4.4,0-7.7-3.6-7.7-7.7
		c0-1.1,0.2-2.2,0.6-3.2l-9.6-9.6h-0.2v18.1c2.8,1.3,4.9,3.9,4.9,7.3c0,4.4-3.6,7.7-7.7,7.7c-4.4,0-7.7-3.6-7.7-7.7
		c0-3.3,2.1-6.2,4.9-7.3v-17.7c-2.8-1.3-4.9-3.9-4.9-7.3c0-1.1,0.2-2.2,0.6-3.2l-12-12l-29.9,29.7c-0.6,0.6-0.6,2.2,0,3.2l46.9,46.9
		c0.6,0.6,2.2,0.6,3.2,0l46.8-46.9C-61.1,374.1-61.1,372.9-61.9,371.9z"/>
</g>
<g id="_x31_">
	<g>
		<path class="st1" d="M-429.6,340.4h6.7c0.5,0,0.8,0.4,0.8,0.8v6.7L-429.6,340.4z M-377.5,347.9c0,1.1-0.9,1.9-1.9,1.9h-39.7v-8.7
			c0-2-1.6-3.7-3.7-3.7h-8.7v-17.7c0-1.1,0.9-1.9,2-1.9h51.4c0.5,0,0.8,0.4,0.8,0.8L-377.5,347.9L-377.5,347.9z M-374.6,318.7
			c0-2-1.5-3.5-3.3-3.7h-51.7c-2.6,0-4.8,2.1-4.8,4.8v18.1c0,1,0.4,1.9,1.1,2.6l11.1,11c0.7,0.7,1.6,1.1,2.6,1.1h40.3
			c2.6,0,4.8-2.1,4.8-4.8v-29.1H-374.6z"/>
		<text transform="matrix(1 0 0 1 -416.2298 346.2847)" class="st1 st4 st8">.rst</text>
	</g>
	<g>
		<path class="st1" d="M-364.6,340.4h6.7c0.5,0,0.8,0.4,0.8,0.8v6.7L-364.6,340.4z M-312.5,347.9c0,1.1-0.9,1.9-1.9,1.9h-39.7v-8.7
			c0-2-1.6-3.7-3.7-3.7h-8.7v-17.7c0-1.1,0.9-1.9,1.9-1.9h51.4c0.5,0,0.8,0.4,0.8,0.8L-312.5,347.9L-312.5,347.9z M-309.6,318.7
			c0-2-1.5-3.5-3.3-3.7h-51.7c-2.6,0-4.8,2.1-4.8,4.8v18.1c0,1,0.4,1.9,1.1,2.6l11.1,11c0.7,0.7,1.6,1.1,2.6,1.1h40.3
			c2.6,0,4.8-2.1,4.8-4.8v-29.1H-309.6z"/>
		<text transform="matrix(0.85 0 0 1 -351.5942 346.2849)" class="st1 st4 st5">.md</text>
	</g>
	<g>
		<path class="st1" d="M-341.5,362.9h-111.1c-7.1,0-12.9,5.8-12.9,12.9v52.7c0,7.1,5.8,12.9,12.9,12.9h51.6v14.4h-16.7
			c-2.2,0-4,1.8-4,4s1.8,4,4,4h40.9c2.2,0,4-1.8,4-4s-1.8-4-4-4h-16.7v-14.5h52c7.1,0,12.9-5.8,12.9-12.9v-52.7
			C-328.6,368.7-334.4,362.9-341.5,362.9z M-336.4,428.4c0,2.9-2.2,5.1-5.1,5.1h-111.1c-2.9,0-5.1-2.2-5.1-5.1v-52.7
			c0-2.9,2.2-5.1,5.1-5.1h111.1c2.9,0,5.1,2.2,5.1,5.1V428.4L-336.4,428.4z"/>
	</g>
	<line class="st2" x1="-461.6" y1="377.8" x2="-332.1" y2="377.8"/>
	<line class="st2" x1="-426.6" y1="377.8" x2="-426.6" y2="436.3"/>
	<line class="st2" x1="-452.9" y1="385.4" x2="-443" y2="385.4"/>
	<line class="st2" x1="-449.9" y1="391.4" x2="-437" y2="391.4"/>
	<line class="st2" x1="-446.9" y1="397.4" x2="-432" y2="397.4"/>
	<line class="st2" x1="-449.9" y1="403.4" x2="-439" y2="403.4"/>
	<line class="st2" x1="-452.9" y1="409.4" x2="-432" y2="409.4"/>
	<line class="st2" x1="-449.9" y1="415.4" x2="-439" y2="415.4"/>
	<line class="st2" x1="-452.9" y1="421.4" x2="-437" y2="421.4"/>
	<line class="st2" x1="-449.9" y1="427.4" x2="-442" y2="427.4"/>
	<polyline class="st9" points="-395,414.8 -403.9,405.9 -394.6,396.7 	"/>
	<polyline class="st9" points="-370,414.8 -361.1,405.9 -370.4,396.7 	"/>
	<line class="st9" x1="-376.9" y1="393.6" x2="-388.1" y2="417.8"/>
</g>
</svg>
